# xmcd
#
# Track frame offsets: 
#        150
#        13392
#        27526
#        45487
#        61729
#        78425
#        94572
#        112036
#        125341
#        140089
#        158391
#        176025
#
# Disc length: 2550 seconds
#
# Revision: 0
# Processed by: cddbd v1.5.2PL0 Copyright (c) Steve Scherf et al.
# Submitted via: ExactAudioCopy v0.99pb3
#
DISCID=9909f40c
DTITLE=Lovegun - Love and Roll
DYEAR=2007
DGENRE=Rock
TTITLE0=Megint 1 még 1 nyár
TTITLE1=Szívtipró dal
TTITLE2=Az élet szép
TTITLE3=Esõ mossa el
TTITLE4=Tûnj el
TTITLE5=Tiéd minden vágy
TTITLE6=Ha valami fáj
TTITLE7=Pörögj fel
TTITLE8=Rómeó
TTITLE9=Hosszú lesz az út
TTITLE10=Színház
TTITLE11=Felügyelõ
EXTD=
EXTT0=
EXTT1=
EXTT2=
EXTT3=
EXTT4=
EXTT5=
EXTT6=
EXTT7=
EXTT8=
EXTT9=
EXTT10=
EXTT11=
PLAYORDER=
